PathFileType	4	(X/Y/Z)	Patient3_R_AnkleIso_Processed.trc
DataRate	CameraRate	NumFrames	NumMarkers	Units	OrigDataRate	OrigDataStartFrame	OrigNumFrames
16.66000000000000	16.66000000000000	10	33	mm	16.66000000000000	38	       50
Frame#	Time	L.Toe			R.Toe			R.Shoulder			L.Heel			Neck			R.Heel			L.Shank.Lateral			R.Shank.Lateral			L.Midfoot.Superior			L.Elbow			R.Midfoot.Lateral			R.Midfoot.Superior			L.Shoulder			R.Thigh.Lateral			R.Elbow			Sacral			L.Thigh.Superior			R.Patella			R.Wrist			R.Shank.Superior			L.Wrist			R.Shank.Inferior			R.Thigh.Superior			R.Thigh.Inferior			L.Asis			L.Shank.Inferior			L.Midfoot.Lateral			Sternum			L.Shank.Superior			R.Asis			L.Patella			L.Thigh.Lateral			L.Thigh.Inferior			
		X1	Y1	Z1	X2	Y2	Z2	X3	Y3	Z3	X4	Y4	Z4	X5	Y5	Z5	X6	Y6	Z6	X7	Y7	Z7	X8	Y8	Z8	X9	Y9	Z9	X10	Y10	Z10	X11	Y11	Z11	X12	Y12	Z12	X13	Y13	Z13	X14	Y14	Z14	X15	Y15	Z15	X16	Y16	Z16	X17	Y17	Z17	X18	Y18	Z18	X19	Y19	Z19	X20	Y20	Z20	X21	Y21	Z21	X22	Y22	Z22	X23	Y23	Z23	X24	Y24	Z24	X25	Y25	Z25	X26	Y26	Z26	X27	Y27	Z27	X28	Y28	Z28	X29	Y29	Z29	X30	Y30	Z30	X31	Y31	Z31	X32	Y32	Z32	X33	Y33	Z33	

38	2.765306122	705.5133171	42.95653339	376.8347883	1110.941715	235.2262738	731.1304641	449.7681257	1440.110025	513.7906662	414.8744712	33.00808202	427.0990923	420.5353214	1463.938139	365.723486	854.079363	124.252727	633.7335786	483.031109	325.2470562	294.4420512	741.9059825	425.1451987	679.7539186	586.0322309	90.18174188	390.2955308	363.3477747	1116.827531	96.94502018	909.0595768	163.4907831	714.3236778	991.3921636	235.467791	676.6524107	467.9379652	1431.177714	222.1997781	623.9580543	723.3921582	633.2954528	541.7575182	1131.700446	652.0661886	412.6219284	967.542019	376.3873701	663.9785901	738.3558466	305.1694727	773.1214715	606.6660957	597.671406	635.3948341	1268.002391	464.1218296	798.990295	501.9856546	634.7751702	537.0783894	1006.17604	-58.77598752	875.952132	342.6305265	650.2150032	682.9723489	799.6602785	574.2710016	727.7253658	697.28817	579.8799045	614.8903955	966.9773724	279.3592012	550.9268684	229.7049572	365.5628525	490.4973136	27.13523949	359.277925	561.3606836	1374.858725	380.6414088	575.6182005	380.8783796	334.5946948	547.5168777	996.5852708	532.4390019	620.5008588	490.0837815	346.046623	567.1755622	656.8346786	258.4048686	644.1569156	608.6433241	324.5701817
39	2.826530612	705.5790358	42.81493002	376.8312175	1114.112999	216.8757508	734.1957169	450.7172522	1439.565969	514.1884875	414.9022806	33.03093951	427.0936706	421.0212811	1463.600003	366.2570702	848.0238177	129.797906	636.6066909	483.8976952	325.1851469	294.7100386	741.3858583	425.3037721	682.4408625	586.0896992	90.14054229	390.3911671	363.6328347	1116.606624	97.76404385	906.7551133	162.2696986	717.6224504	993.9816471	228.8999106	680.8488847	468.1079628	1431.224309	222.5104355	624.351213	723.4322348	634.3654324	544.2006121	1131.350808	651.6806322	414.8749511	967.4814712	376.1247405	665.7154605	737.9557031	305.8448649	773.7097493	606.4666695	600.3784366	636.8173322	1268.363395	463.7539038	798.8039373	501.8892834	637.6649827	537.1670238	1006.57213	-58.64107584	875.8178488	342.7868027	654.4006797	684.0566932	799.5823461	575.8444062	728.5811678	697.1395586	582.0280956	617.2972865	966.7101627	279.5189045	551.3659093	229.627068	365.8792222	490.521376	27.15866856	359.2647145	562.1794659	1374.968033	380.6894127	576.2939185	380.906668	335.0610804	549.3273377	996.5694086	532.5198966	621.1303738	489.90311	346.6363724	568.8409694	656.6354281	258.6484604	645.7015381	608.480742	325.3023147
40	2.887755102	705.6665638	42.6438345	376.8233989	1117.563019	197.8582303	733.9905515	451.8988205	1439.277367	514.5444476	414.9297784	33.0522416	427.0808164	421.6879318	1463.396242	366.7570521	842.7452756	136.9355748	639.7873679	484.8272614	325.1392504	295.1156518	741.8475029	426.0995734	685.1054898	586.1235622	90.08037698	390.4966022	363.8308612	1116.567192	98.67827721	905.7568735	161.6960601	720.3901088	997.2962784	222.4453168	683.5382425	468.5433854	1431.37578	222.7890204	625.1904767	723.855247	635.4636284	546.9764871	1131.3712	651.4700891	417.0933364	967.5651261	375.9835733	667.3990354	737.5414144	307.0954827	774.7608979	606.789533	602.6241107	638.510774	1268.980082	463.4302887	799.2516599	502.2695472	640.1200062	537.2056077	1007.219092	-58.36658524	876.5083031	343.5118126	658.0999835	685.3028818	799.8601008	577.1843102	729.7400557	697.4331463	583.8301701	619.7428481	966.4479234	279.9381231	551.7774958	229.6386281	366.4833911	490.5448282	27.17596236	359.2608937	563.2139988	1375.265367	380.7209173	576.8955322	381.0948058	335.8201309	551.0150848	996.6634783	532.7275234	621.4211574	489.8286126	347.7416295	570.524571	656.5120956	259.1664013	647.1821206	608.4033045	326.6331221
41	2.948979592	705.7717378	42.50467763	376.8162176	1120.648478	178.5780596	729.9544849	453.3366092	1439.192934	514.849626	414.9552316	33.06831683	427.0719946	422.6516687	1463.333533	367.2243717	838.5851856	145.5712507	643.4826925	485.7757417	325.135571	295.4461614	743.2642187	427.4581771	687.7070614	586.1633361	90.05646117	390.5911636	363.898763	1116.83133	99.35122817	906.1163049	161.732736	722.5514025	1001.101242	216.1413697	684.493618	469.263906	1431.597128	223.0300901	626.4399564	724.584599	636.502914	549.5509367	1131.470475	651.3395256	418.8923722	967.6283016	375.9835451	668.8096222	737.2639579	308.252062	776.210883	607.5559947	604.3372918	640.2073112	1269.42881	463.1192701	800.3453886	503.0781572	642.0870667	537.3460396	1008.200165	-58.05642746	877.9984555	344.7595675	661.2383077	686.5793427	800.3707662	578.0218955	731.0986801	698.045036	585.1299719	621.679541	966.2567562	280.3224063	552.1867499	229.6967594	367.1310222	490.5708998	27.20383517	359.2645168	564.4093951	1375.510975	380.7073979	577.5135054	381.2660515	336.5719078	552.4526572	996.7942379	532.9110517	621.7590271	489.7929822	348.8077916	571.9873433	656.4725373	259.6795847	648.1129982	608.177874	327.8419734
42	3.010204082	705.8803192	42.40048825	376.8134194	1122.713967	160.9696819	723.6792605	455.1000819	1439.162789	515.160768	414.9870598	33.07928188	427.0839028	423.866106	1463.387809	367.7384005	835.4812798	154.1163005	647.5314162	486.5705141	325.1287222	295.6609261	745.3113367	429.1222696	690.1221523	586.2236466	90.065904	390.666601	363.8628792	1117.347144	99.71092431	907.1537841	162.0738831	724.2597333	1004.570398	210.4384091	684.1774209	470.0813797	1431.871673	223.272338	628.0788752	725.476965	637.3736652	551.7326856	1131.343054	651.0816321	420.051503	967.5790033	376.0931661	669.7420487	737.1895703	308.6657205	778.0092314	608.5036314	605.4707222	641.7465708	1269.423344	462.6573858	801.9900417	504.0939248	643.511135	537.5619398	1009.356302	-57.81573348	879.8583013	346.0931307	663.7241283	687.9929093	800.9972233	578.370462	732.6827431	698.7810514	585.9363478	622.7151288	966.1551486	280.316185	552.582409	229.7481508	367.6478165	490.6059633	27.25362326	359.2773653	565.6598775	1375.54114	380.5957844	578.1278731	381.3429145	337.0928801	553.8074886	996.9261225	532.9237567	622.250381	489.7615158	349.4232893	572.9172869	656.4579139	259.9328334	648.4978427	607.8974877	328.3564062
43	3.071428571	705.9695398	42.28506068	376.8138551	1123.302639	147.3338616	717.6848448	457.0731421	1439.135194	515.4816429	415.0237072	33.08347774	427.1075244	425.1188135	1463.523621	368.3057866	833.397357	160.8564751	651.5407309	486.9996746	325.0754528	295.7322481	747.2698543	430.7081182	692.1111783	586.2973676	90.0858963	390.7074102	363.7440599	1117.95862	99.83514167	908.1266822	162.44742	725.8135264	1006.890367	206.0468602	683.5330659	470.7048026	1432.196079	223.52146	629.8859211	726.3714669	637.9181104	553.6191855	1130.964045	650.5939216	420.5771754	967.557388	376.3765352	670.1525338	737.1958525	308.2156031	779.8511793	609.3197712	606.0191232	643.0761841	1269.052667	461.9303332	803.6995991	505.0507911	644.5020708	537.6325131	1010.404599	-57.77728915	881.4934175	347.1810144	665.6485281	689.5181406	801.5246205	578.1444152	734.312496	699.3852504	586.1979964	622.9262985	966.0868842	279.7155008	552.8549229	229.7657478	367.9187789	490.6447638	27.30481224	359.2952242	566.8257613	1375.422443	380.3233711	578.5455219	381.3527622	337.2541369	555.3084877	997.026695	532.6062022	622.6268799	489.7273802	349.5005108	573.1806451	656.3984809	259.8010508	648.7173731	607.7891071	328.1398307
44	3.132653061	706.0403258	42.14415552	376.8101907	1122.541012	136.8542472	712.1437716	458.903979	1439.127656	515.7163039	415.0518443	33.08260092	427.117563	426.1818886	1463.679445	368.792566	831.5099921	165.7314889	655.6182259	486.9529955	324.9952004	295.566071	748.9963301	432.3487241	693.8233898	586.3623585	90.10031348	390.6823881	363.5174622	1118.562113	99.81111498	908.6169203	162.6983024	727.3346449	1007.927567	202.6228927	682.670066	471.066549	1432.543263	223.6971651	631.607052	727.2434901	637.9807149	555.4494904	1130.599604	649.9620222	420.7062929	967.6859502	376.6415023	670.1486502	737.1319792	307.2709909	781.5443128	609.9713626	605.9453533	644.2504433	1268.717088	461.0351543	805.294592	505.9173885	644.916326	537.3024681	1011.163794	-58.06315372	882.6697864	347.9976383	666.9486376	690.9548803	801.9881706	577.3712182	735.7952168	699.9005508	585.8880514	622.7922522	965.9804397	278.7459507	552.8735955	229.7428132	367.8107379	490.6707201	27.31831661	359.3037383	567.8051922	1375.328816	379.9087351	578.567486	381.3017759	336.9825954	556.7285646	997.0360596	531.9937776	622.6500738	489.6785754	349.0671224	572.9379338	656.2839644	259.2948922	648.7331199	607.7554839	327.433568
45	3.193877551	706.0931511	42.04175829	376.805876	1120.560766	127.5383505	705.9874608	460.2653234	1439.177254	515.7112779	415.0634753	33.09210139	427.0955449	426.9444017	1463.821024	368.9907679	829.112961	169.4166702	659.7374532	486.4068597	324.9987968	295.0699362	750.4977007	434.0092884	695.3161747	586.3952253	90.10566601	390.5644148	363.1650759	1119.154898	99.60528684	908.5078554	162.5730834	728.5473315	1007.858827	199.3582807	681.1746521	471.3387053	1432.858951	223.6637103	633.1552558	728.0727935	637.579365	557.0860813	1130.49055	649.3572474	420.7751156	967.8933647	376.5828971	669.8833388	736.995288	305.9293991	782.9355754	610.4043099	605.2679129	645.2327581	1268.673526	460.1858664	806.6495203	506.5781175	644.646264	536.5574944	1011.597611	-58.65737918	883.2928719	348.4464338	667.5164993	692.2111186	802.3612573	576.0895607	737.0158919	700.2832956	585.0177283	622.5837586	965.825775	277.6385019	552.6261115	229.6661593	367.1442984	490.679394	27.27874491	359.3003443	568.5552615	1375.363489	379.4132977	578.2533617	381.1337931	336.1595715	557.8869847	997.0152988	531.1518512	622.550993	489.5758734	347.9885018	572.4026632	656.1744033	258.4453238	648.4687701	607.6524954	326.2081362
46	3.255102041	706.1223499	42.03741548	376.826589	1117.416166	118.2233919	698.480229	461.0618409	1439.26844	515.4275465	415.061617	33.12590446	427.0517157	427.3916861	1463.883031	368.8256656	826.1338238	172.0858509	663.4681729	485.4832578	325.1739146	294.238804	751.8494665	435.3463082	696.346662	586.4028251	90.12659945	390.3686819	362.7681351	1119.594031	99.21464935	907.8384277	161.6961362	729.0967249	1006.821372	195.5594715	678.6453085	471.576678	1433.020338	223.3816863	634.7434061	728.6718655	636.900704	558.1963068	1130.613862	648.8960121	420.9841776	968.030116	376.3356606	669.6058683	736.8890498	303.8472579	784.1365728	610.3717759	603.9996957	645.9250193	1268.820191	459.5220049	807.798661	506.71918	643.664573	535.7058854	1011.695103	-59.35250217	883.3963553	348.173549	667.2366281	693.5386051	802.4413782	574.5172344	738.1416029	700.2790755	583.7025833	622.3159606	965.6758499	276.417544	552.2750688	229.533059	365.8655513	490.687639	27.2128955	359.3034833	569.0667924	1375.482441	378.8742824	577.9482877	380.7849276	334.6912438	559.0307358	997.0443662	530.1499635	622.8835281	489.3645218	346.0771555	571.7916573	656.1190314	257.2600678	648.3977229	607.5382081	324.123224
47	3.316326531	706.1342641	42.08525494	376.8752312	1113.300069	108.7279786	689.3293844	461.4290995	1439.273507	515.0353019	415.0606011	33.17805082	427.0233544	427.5296387	1463.7578	368.4879895	822.9225951	173.4778677	666.3475234	484.7107362	325.4273925	293.4145527	753.3438801	436.0737877	696.6361013	586.4103921	90.1642572	390.1869073	362.5255578	1119.592692	98.86334066	906.8081946	159.7577433	728.6469955	1004.956511	190.8943672	674.758926	471.6084069	1432.915592	223.0084181	636.8409826	728.8790811	636.0194675	559.0210578	1130.806007	648.5815616	421.5165086	967.9845713	376.2377065	669.6903621	736.8409168	301.3848945	785.5552157	609.6574535	602.0466634	646.4274557	1268.981949	459.0024644	809.0780878	506.0964082	641.8475759	535.1620417	1011.429657	-59.84976127	883.240607	346.887565	665.9224189	695.3966272	802.09458	572.7624564	739.5923384	699.7092887	581.9646477	622.2320831	965.5670081	275.2134736	552.0838396	229.3921572	364.4944139	490.715525	27.17462386	359.3246142	569.3620644	1375.567571	378.3328521	577.9973446	380.3621544	333.0605736	560.5322239	997.1000683	529.1818813	623.7885665	489.0830319	343.8978345	571.497957	656.0867017	256.0310518	649.1168968	607.572516	321.6796827
